<svg xmlns="http://www.w3.org/2000/svg" viewBox="0 0 64 64" fill="none">
  <defs>
    <linearGradient id="g" x1="10" y1="12" x2="56" y2="54" gradientUnits="userSpaceOnUse">
      <stop stop-color="#7C3AED"/>
      <stop offset="1" stop-color="#2563EB"/>
    </linearGradient>
  </defs>
  <circle cx="32" cy="32" r="30" fill="url(#g)"/>
  <path fill="#fff" d="M20 22.5c0-1.4 1.1-2.5 2.5-2.5h19c1.4 0 2.5 1.1 2.5 2.5v13.2c0 1.4-1.1 2.5-2.5 2.5H30.6l-6.2 5.1c-.7.6-1.7.7-2.5.2-.8-.4-1.3-1.3-1.3-2.2V22.5Zm5 .5v17l4.7-3.8c.4-.3.8-.4 1.3-.4H39V23H25Z"/>
  <path fill="#fff" opacity=".9" d="M28 27.8c0-.5.4-.8.8-.8h1.3c.3 0 .5.1.7.3l3.2 3.8 3.2-3.8c.2-.2.4-.3.7-.3h1.3c.5 0 .8.3.8.8v6.9c0 .5-.3.8-.8.8h-1.2c-.5 0-.8-.3-.8-.8v-3.7l-2.3 2.7c-.2.2-.4.3-.7.3s-.5-.1-.7-.3l-2.3-2.7v3.7c0 .5-.3.8-.8.8h-1.2c-.5 0-.8-.3-.8-.8v-6.9Z"/>
</svg>

