<svg xmlns="http://www.w3.org/2000/svg" viewBox="0 0 64 64" fill="none">
  <defs>
    <linearGradient id="g" x1="12" y1="10" x2="54" y2="56" gradientUnits="userSpaceOnUse">
      <stop stop-color="#2AABEE"/>
      <stop offset="1" stop-color="#229ED9"/>
    </linearGradient>
  </defs>
  <circle cx="32" cy="32" r="30" fill="url(#g)"/>
  <path fill="#fff" d="M46.9 19.8c.5-.2 1.1-.2 1.6 0 .9.4 1.3 1.4 1.1 2.4l-6.1 28.4c-.2 1-.9 1.7-1.8 1.9-.8.2-1.6-.1-2.2-.6l-8.3-6.2-4 3.9c-.4.4-.9.6-1.5.5-.6-.1-1-.5-1.2-1l-3-9.7-8.6-2.9c-1-.3-1.6-1.3-1.6-2.3 0-1 .7-1.9 1.6-2.3l31.4-12.1Zm-4.4 6.4L19.2 35.5l6.1 2 14.4-9.1c.4-.3 1-.2 1.3.1.3.4.2 1-.2 1.3L28 41.5l2.4 7.8 1.2-1.2c.7-.7 1.8-.8 2.6-.2l6.9 5.1 5.4-25.1Z"/>
</svg>

